<?xml version="1.0" encoding="UTF-8" standalone="no"?>
<!DOCTYPE svg PUBLIC "-//W3C//DTD SVG 1.1//EN"
 "http://www.w3.org/Graphics/SVG/1.1/DTD/svg11.dtd">
<!-- Generated by graphviz version 2.50.0 (0)
 -->
<!-- Title: Tree Pages: 1 -->
<svg width="1050pt" height="477pt"
 viewBox="0.00 0.00 1049.50 477.00" xmlns="http://www.w3.org/2000/svg" xmlns:xlink="http://www.w3.org/1999/xlink">
<g id="graph0" class="graph" transform="scale(1 1) rotate(0) translate(4 473)">
<title>Tree</title>
<polygon fill="white" stroke="transparent" points="-4,4 -4,-473 1045.5,-473 1045.5,4 -4,4"/>
<!-- 0 -->
<g id="node1" class="node">
<title>0</title>
<polygon fill="#afd7f4" stroke="black" points="665,-469 510,-469 510,-401 665,-401 665,-469"/>
<text text-anchor="middle" x="587.5" y="-453.8" font-family="Helvetica,sans-Serif" font-size="14.00">worst radius &lt;= 16.795</text>
<text text-anchor="middle" x="587.5" y="-438.8" font-family="Helvetica,sans-Serif" font-size="14.00">samples = 426</text>
<text text-anchor="middle" x="587.5" y="-423.8" font-family="Helvetica,sans-Serif" font-size="14.00">value = [159, 267]</text>
<text text-anchor="middle" x="587.5" y="-408.8" font-family="Helvetica,sans-Serif" font-size="14.00">class = 양성</text>
</g>
<!-- 1 -->
<g id="node2" class="node">
<title>1</title>
<polygon fill="#4ca6e8" stroke="black" points="577.5,-365 377.5,-365 377.5,-297 577.5,-297 577.5,-365"/>
<text text-anchor="middle" x="477.5" y="-349.8" font-family="Helvetica,sans-Serif" font-size="14.00">worst concave points &lt;= 0.136</text>
<text text-anchor="middle" x="477.5" y="-334.8" font-family="Helvetica,sans-Serif" font-size="14.00">samples = 284</text>
<text text-anchor="middle" x="477.5" y="-319.8" font-family="Helvetica,sans-Serif" font-size="14.00">value = [25, 259]</text>
<text text-anchor="middle" x="477.5" y="-304.8" font-family="Helvetica,sans-Serif" font-size="14.00">class = 양성</text>
</g>
<!-- 0&#45;&gt;1 -->
<g id="edge1" class="edge">
<title>0&#45;&gt;1</title>
<path fill="none" stroke="black" d="M551.79,-400.88C541.89,-391.71 531.04,-381.65 520.77,-372.12"/>
<polygon fill="black" stroke="black" points="523.12,-369.53 513.41,-365.3 518.36,-374.67 523.12,-369.53"/>
<text text-anchor="middle" x="514.35" y="-386.58" font-family="Helvetica,sans-Serif" font-size="14.00">True</text>
</g>
<!-- 14 -->
<g id="node15" class="node">
<title>14</title>
<polygon fill="#e78945" stroke="black" points="751.5,-365 603.5,-365 603.5,-297 751.5,-297 751.5,-365"/>
<text text-anchor="middle" x="677.5" y="-349.8" font-family="Helvetica,sans-Serif" font-size="14.00">texture error &lt;= 0.473</text>
<text text-anchor="middle" x="677.5" y="-334.8" font-family="Helvetica,sans-Serif" font-size="14.00">samples = 142</text>
<text text-anchor="middle" x="677.5" y="-319.8" font-family="Helvetica,sans-Serif" font-size="14.00">value = [134, 8]</text>
<text text-anchor="middle" x="677.5" y="-304.8" font-family="Helvetica,sans-Serif" font-size="14.00">class = 악성</text>
</g>
<!-- 0&#45;&gt;14 -->
<g id="edge14" class="edge">
<title>0&#45;&gt;14</title>
<path fill="none" stroke="black" d="M616.72,-400.88C624.58,-391.98 633.17,-382.24 641.36,-372.96"/>
<polygon fill="black" stroke="black" points="644.13,-375.11 648.12,-365.3 638.88,-370.48 644.13,-375.11"/>
<text text-anchor="middle" x="649.68" y="-386.55" font-family="Helvetica,sans-Serif" font-size="14.00">False</text>
</g>
<!-- 2 -->
<g id="node3" class="node">
<title>2</title>
<polygon fill="#3c9fe5" stroke="black" points="369,-261 226,-261 226,-193 369,-193 369,-261"/>
<text text-anchor="middle" x="297.5" y="-245.8" font-family="Helvetica,sans-Serif" font-size="14.00">radius error &lt;= 1.048</text>
<text text-anchor="middle" x="297.5" y="-230.8" font-family="Helvetica,sans-Serif" font-size="14.00">samples = 252</text>
<text text-anchor="middle" x="297.5" y="-215.8" font-family="Helvetica,sans-Serif" font-size="14.00">value = [4, 248]</text>
<text text-anchor="middle" x="297.5" y="-200.8" font-family="Helvetica,sans-Serif" font-size="14.00">class = 양성</text>
</g>
<!-- 1&#45;&gt;2 -->
<g id="edge2" class="edge">
<title>1&#45;&gt;2</title>
<path fill="none" stroke="black" d="M419.06,-296.88C401.84,-287.12 382.85,-276.37 365.11,-266.31"/>
<polygon fill="black" stroke="black" points="366.38,-263.01 355.96,-261.12 362.93,-269.1 366.38,-263.01"/>
</g>
<!-- 7 -->
<g id="node8" class="node">
<title>7</title>
<polygon fill="#f3c3a1" stroke="black" points="553.5,-261 401.5,-261 401.5,-193 553.5,-193 553.5,-261"/>
<text text-anchor="middle" x="477.5" y="-245.8" font-family="Helvetica,sans-Serif" font-size="14.00">worst texture &lt;= 25.62</text>
<text text-anchor="middle" x="477.5" y="-230.8" font-family="Helvetica,sans-Serif" font-size="14.00">samples = 32</text>
<text text-anchor="middle" x="477.5" y="-215.8" font-family="Helvetica,sans-Serif" font-size="14.00">value = [21, 11]</text>
<text text-anchor="middle" x="477.5" y="-200.8" font-family="Helvetica,sans-Serif" font-size="14.00">class = 악성</text>
</g>
<!-- 1&#45;&gt;7 -->
<g id="edge7" class="edge">
<title>1&#45;&gt;7</title>
<path fill="none" stroke="black" d="M477.5,-296.88C477.5,-288.78 477.5,-279.98 477.5,-271.47"/>
<polygon fill="black" stroke="black" points="481,-271.3 477.5,-261.3 474,-271.3 481,-271.3"/>
</g>
<!-- 3 -->
<g id="node4" class="node">
<title>3</title>
<polygon fill="#3b9ee5" stroke="black" points="231.5,-157 51.5,-157 51.5,-89 231.5,-89 231.5,-157"/>
<text text-anchor="middle" x="141.5" y="-141.8" font-family="Helvetica,sans-Serif" font-size="14.00">smoothness error &lt;= 0.003</text>
<text text-anchor="middle" x="141.5" y="-126.8" font-family="Helvetica,sans-Serif" font-size="14.00">samples = 251</text>
<text text-anchor="middle" x="141.5" y="-111.8" font-family="Helvetica,sans-Serif" font-size="14.00">value = [3, 248]</text>
<text text-anchor="middle" x="141.5" y="-96.8" font-family="Helvetica,sans-Serif" font-size="14.00">class = 양성</text>
</g>
<!-- 2&#45;&gt;3 -->
<g id="edge3" class="edge">
<title>2&#45;&gt;3</title>
<path fill="none" stroke="black" d="M246.85,-192.88C232.2,-183.3 216.08,-172.76 200.94,-162.86"/>
<polygon fill="black" stroke="black" points="202.45,-159.67 192.16,-157.12 198.62,-165.53 202.45,-159.67"/>
</g>
<!-- 6 -->
<g id="node7" class="node">
<title>6</title>
<polygon fill="#e58139" stroke="black" points="345,-149.5 250,-149.5 250,-96.5 345,-96.5 345,-149.5"/>
<text text-anchor="middle" x="297.5" y="-134.3" font-family="Helvetica,sans-Serif" font-size="14.00">samples = 1</text>
<text text-anchor="middle" x="297.5" y="-119.3" font-family="Helvetica,sans-Serif" font-size="14.00">value = [1, 0]</text>
<text text-anchor="middle" x="297.5" y="-104.3" font-family="Helvetica,sans-Serif" font-size="14.00">class = 악성</text>
</g>
<!-- 2&#45;&gt;6 -->
<g id="edge6" class="edge">
<title>2&#45;&gt;6</title>
<path fill="none" stroke="black" d="M297.5,-192.88C297.5,-182.33 297.5,-170.6 297.5,-159.85"/>
<polygon fill="black" stroke="black" points="301,-159.52 297.5,-149.52 294,-159.52 301,-159.52"/>
</g>
<!-- 4 -->
<g id="node5" class="node">
<title>4</title>
<polygon fill="#7bbeee" stroke="black" points="95,-53 0,-53 0,0 95,0 95,-53"/>
<text text-anchor="middle" x="47.5" y="-37.8" font-family="Helvetica,sans-Serif" font-size="14.00">samples = 4</text>
<text text-anchor="middle" x="47.5" y="-22.8" font-family="Helvetica,sans-Serif" font-size="14.00">value = [1, 3]</text>
<text text-anchor="middle" x="47.5" y="-7.8" font-family="Helvetica,sans-Serif" font-size="14.00">class = 양성</text>
</g>
<!-- 3&#45;&gt;4 -->
<g id="edge4" class="edge">
<title>3&#45;&gt;4</title>
<path fill="none" stroke="black" d="M108.62,-88.95C99.43,-79.71 89.45,-69.67 80.26,-60.44"/>
<polygon fill="black" stroke="black" points="82.63,-57.86 73.1,-53.24 77.67,-62.79 82.63,-57.86"/>
</g>
<!-- 5 -->
<g id="node6" class="node">
<title>5</title>
<polygon fill="#3b9ee5" stroke="black" points="223.5,-53 113.5,-53 113.5,0 223.5,0 223.5,-53"/>
<text text-anchor="middle" x="168.5" y="-37.8" font-family="Helvetica,sans-Serif" font-size="14.00">samples = 247</text>
<text text-anchor="middle" x="168.5" y="-22.8" font-family="Helvetica,sans-Serif" font-size="14.00">value = [2, 245]</text>
<text text-anchor="middle" x="168.5" y="-7.8" font-family="Helvetica,sans-Serif" font-size="14.00">class = 양성</text>
</g>
<!-- 3&#45;&gt;5 -->
<g id="edge5" class="edge">
<title>3&#45;&gt;5</title>
<path fill="none" stroke="black" d="M150.94,-88.95C153.35,-80.53 155.94,-71.45 158.38,-62.92"/>
<polygon fill="black" stroke="black" points="161.76,-63.81 161.15,-53.24 155.03,-61.89 161.76,-63.81"/>
</g>
<!-- 8 -->
<g id="node9" class="node">
<title>8</title>
<polygon fill="#7bbeee" stroke="black" points="547.5,-157 363.5,-157 363.5,-89 547.5,-89 547.5,-157"/>
<text text-anchor="middle" x="455.5" y="-141.8" font-family="Helvetica,sans-Serif" font-size="14.00">worst smoothness &lt;= 0.179</text>
<text text-anchor="middle" x="455.5" y="-126.8" font-family="Helvetica,sans-Serif" font-size="14.00">samples = 12</text>
<text text-anchor="middle" x="455.5" y="-111.8" font-family="Helvetica,sans-Serif" font-size="14.00">value = [3, 9]</text>
<text text-anchor="middle" x="455.5" y="-96.8" font-family="Helvetica,sans-Serif" font-size="14.00">class = 양성</text>
</g>
<!-- 7&#45;&gt;8 -->
<g id="edge8" class="edge">
<title>7&#45;&gt;8</title>
<path fill="none" stroke="black" d="M470.36,-192.88C468.59,-184.69 466.67,-175.79 464.82,-167.19"/>
<polygon fill="black" stroke="black" points="468.21,-166.34 462.68,-157.3 461.37,-167.81 468.21,-166.34"/>
</g>
<!-- 11 -->
<g id="node12" class="node">
<title>11</title>
<polygon fill="#e88f4f" stroke="black" points="735.5,-157 565.5,-157 565.5,-89 735.5,-89 735.5,-157"/>
<text text-anchor="middle" x="650.5" y="-141.8" font-family="Helvetica,sans-Serif" font-size="14.00">worst symmetry &lt;= 0.268</text>
<text text-anchor="middle" x="650.5" y="-126.8" font-family="Helvetica,sans-Serif" font-size="14.00">samples = 20</text>
<text text-anchor="middle" x="650.5" y="-111.8" font-family="Helvetica,sans-Serif" font-size="14.00">value = [18, 2]</text>
<text text-anchor="middle" x="650.5" y="-96.8" font-family="Helvetica,sans-Serif" font-size="14.00">class = 악성</text>
</g>
<!-- 7&#45;&gt;11 -->
<g id="edge11" class="edge">
<title>7&#45;&gt;11</title>
<path fill="none" stroke="black" d="M533.67,-192.88C550.22,-183.12 568.47,-172.37 585.52,-162.31"/>
<polygon fill="black" stroke="black" points="587.48,-165.22 594.32,-157.12 583.93,-159.19 587.48,-165.22"/>
</g>
<!-- 9 -->
<g id="node10" class="node">
<title>9</title>
<polygon fill="#4fa8e8" stroke="black" points="393.5,-53 295.5,-53 295.5,0 393.5,0 393.5,-53"/>
<text text-anchor="middle" x="344.5" y="-37.8" font-family="Helvetica,sans-Serif" font-size="14.00">samples = 10</text>
<text text-anchor="middle" x="344.5" y="-22.8" font-family="Helvetica,sans-Serif" font-size="14.00">value = [1, 9]</text>
<text text-anchor="middle" x="344.5" y="-7.8" font-family="Helvetica,sans-Serif" font-size="14.00">class = 양성</text>
</g>
<!-- 8&#45;&gt;9 -->
<g id="edge9" class="edge">
<title>8&#45;&gt;9</title>
<path fill="none" stroke="black" d="M416.68,-88.95C405.61,-79.53 393.57,-69.27 382.55,-59.89"/>
<polygon fill="black" stroke="black" points="384.61,-57.05 374.73,-53.24 380.08,-62.38 384.61,-57.05"/>
</g>
<!-- 10 -->
<g id="node11" class="node">
<title>10</title>
<polygon fill="#e58139" stroke="black" points="507,-53 412,-53 412,0 507,0 507,-53"/>
<text text-anchor="middle" x="459.5" y="-37.8" font-family="Helvetica,sans-Serif" font-size="14.00">samples = 2</text>
<text text-anchor="middle" x="459.5" y="-22.8" font-family="Helvetica,sans-Serif" font-size="14.00">value = [2, 0]</text>
<text text-anchor="middle" x="459.5" y="-7.8" font-family="Helvetica,sans-Serif" font-size="14.00">class = 악성</text>
</g>
<!-- 8&#45;&gt;10 -->
<g id="edge10" class="edge">
<title>8&#45;&gt;10</title>
<path fill="none" stroke="black" d="M456.9,-88.95C457.25,-80.72 457.62,-71.85 457.98,-63.48"/>
<polygon fill="black" stroke="black" points="461.48,-63.38 458.41,-53.24 454.49,-63.08 461.48,-63.38"/>
</g>
<!-- 12 -->
<g id="node13" class="node">
<title>12</title>
<polygon fill="#9ccef2" stroke="black" points="635,-53 540,-53 540,0 635,0 635,-53"/>
<text text-anchor="middle" x="587.5" y="-37.8" font-family="Helvetica,sans-Serif" font-size="14.00">samples = 3</text>
<text text-anchor="middle" x="587.5" y="-22.8" font-family="Helvetica,sans-Serif" font-size="14.00">value = [1, 2]</text>
<text text-anchor="middle" x="587.5" y="-7.8" font-family="Helvetica,sans-Serif" font-size="14.00">class = 양성</text>
</g>
<!-- 11&#45;&gt;12 -->
<g id="edge12" class="edge">
<title>11&#45;&gt;12</title>
<path fill="none" stroke="black" d="M628.47,-88.95C622.61,-80.17 616.28,-70.66 610.38,-61.82"/>
<polygon fill="black" stroke="black" points="613.12,-59.62 604.66,-53.24 607.29,-63.5 613.12,-59.62"/>
</g>
<!-- 13 -->
<g id="node14" class="node">
<title>13</title>
<polygon fill="#e58139" stroke="black" points="755.5,-53 653.5,-53 653.5,0 755.5,0 755.5,-53"/>
<text text-anchor="middle" x="704.5" y="-37.8" font-family="Helvetica,sans-Serif" font-size="14.00">samples = 17</text>
<text text-anchor="middle" x="704.5" y="-22.8" font-family="Helvetica,sans-Serif" font-size="14.00">value = [17, 0]</text>
<text text-anchor="middle" x="704.5" y="-7.8" font-family="Helvetica,sans-Serif" font-size="14.00">class = 악성</text>
</g>
<!-- 11&#45;&gt;13 -->
<g id="edge13" class="edge">
<title>11&#45;&gt;13</title>
<path fill="none" stroke="black" d="M669.39,-88.95C674.35,-80.26 679.72,-70.86 684.73,-62.09"/>
<polygon fill="black" stroke="black" points="687.87,-63.66 689.79,-53.24 681.79,-60.18 687.87,-63.66"/>
</g>
<!-- 15 -->
<g id="node16" class="node">
<title>15</title>
<polygon fill="#399de5" stroke="black" points="725,-253.5 630,-253.5 630,-200.5 725,-200.5 725,-253.5"/>
<text text-anchor="middle" x="677.5" y="-238.3" font-family="Helvetica,sans-Serif" font-size="14.00">samples = 5</text>
<text text-anchor="middle" x="677.5" y="-223.3" font-family="Helvetica,sans-Serif" font-size="14.00">value = [0, 5]</text>
<text text-anchor="middle" x="677.5" y="-208.3" font-family="Helvetica,sans-Serif" font-size="14.00">class = 양성</text>
</g>
<!-- 14&#45;&gt;15 -->
<g id="edge15" class="edge">
<title>14&#45;&gt;15</title>
<path fill="none" stroke="black" d="M677.5,-296.88C677.5,-286.33 677.5,-274.6 677.5,-263.85"/>
<polygon fill="black" stroke="black" points="681,-263.52 677.5,-253.52 674,-263.52 681,-263.52"/>
</g>
<!-- 16 -->
<g id="node17" class="node">
<title>16</title>
<polygon fill="#e6843d" stroke="black" points="917,-261 750,-261 750,-193 917,-193 917,-261"/>
<text text-anchor="middle" x="833.5" y="-245.8" font-family="Helvetica,sans-Serif" font-size="14.00">worst concavity &lt;= 0.191</text>
<text text-anchor="middle" x="833.5" y="-230.8" font-family="Helvetica,sans-Serif" font-size="14.00">samples = 137</text>
<text text-anchor="middle" x="833.5" y="-215.8" font-family="Helvetica,sans-Serif" font-size="14.00">value = [134, 3]</text>
<text text-anchor="middle" x="833.5" y="-200.8" font-family="Helvetica,sans-Serif" font-size="14.00">class = 악성</text>
</g>
<!-- 14&#45;&gt;16 -->
<g id="edge16" class="edge">
<title>14&#45;&gt;16</title>
<path fill="none" stroke="black" d="M728.15,-296.88C742.8,-287.3 758.92,-276.76 774.06,-266.86"/>
<polygon fill="black" stroke="black" points="776.38,-269.53 782.84,-261.12 772.55,-263.67 776.38,-269.53"/>
</g>
<!-- 17 -->
<g id="node18" class="node">
<title>17</title>
<polygon fill="#bddef6" stroke="black" points="913,-157 754,-157 754,-89 913,-89 913,-157"/>
<text text-anchor="middle" x="833.5" y="-141.8" font-family="Helvetica,sans-Serif" font-size="14.00">worst texture &lt;= 30.975</text>
<text text-anchor="middle" x="833.5" y="-126.8" font-family="Helvetica,sans-Serif" font-size="14.00">samples = 5</text>
<text text-anchor="middle" x="833.5" y="-111.8" font-family="Helvetica,sans-Serif" font-size="14.00">value = [2, 3]</text>
<text text-anchor="middle" x="833.5" y="-96.8" font-family="Helvetica,sans-Serif" font-size="14.00">class = 양성</text>
</g>
<!-- 16&#45;&gt;17 -->
<g id="edge17" class="edge">
<title>16&#45;&gt;17</title>
<path fill="none" stroke="black" d="M833.5,-192.88C833.5,-184.78 833.5,-175.98 833.5,-167.47"/>
<polygon fill="black" stroke="black" points="837,-167.3 833.5,-157.3 830,-167.3 837,-167.3"/>
</g>
<!-- 20 -->
<g id="node21" class="node">
<title>20</title>
<polygon fill="#e58139" stroke="black" points="1041.5,-149.5 931.5,-149.5 931.5,-96.5 1041.5,-96.5 1041.5,-149.5"/>
<text text-anchor="middle" x="986.5" y="-134.3" font-family="Helvetica,sans-Serif" font-size="14.00">samples = 132</text>
<text text-anchor="middle" x="986.5" y="-119.3" font-family="Helvetica,sans-Serif" font-size="14.00">value = [132, 0]</text>
<text text-anchor="middle" x="986.5" y="-104.3" font-family="Helvetica,sans-Serif" font-size="14.00">class = 악성</text>
</g>
<!-- 16&#45;&gt;20 -->
<g id="edge20" class="edge">
<title>16&#45;&gt;20</title>
<path fill="none" stroke="black" d="M883.17,-192.88C901.32,-180.79 921.77,-167.15 939.66,-155.22"/>
<polygon fill="black" stroke="black" points="941.84,-157.98 948.22,-149.52 937.96,-152.15 941.84,-157.98"/>
</g>
<!-- 18 -->
<g id="node19" class="node">
<title>18</title>
<polygon fill="#399de5" stroke="black" points="877,-53 782,-53 782,0 877,0 877,-53"/>
<text text-anchor="middle" x="829.5" y="-37.8" font-family="Helvetica,sans-Serif" font-size="14.00">samples = 3</text>
<text text-anchor="middle" x="829.5" y="-22.8" font-family="Helvetica,sans-Serif" font-size="14.00">value = [0, 3]</text>
<text text-anchor="middle" x="829.5" y="-7.8" font-family="Helvetica,sans-Serif" font-size="14.00">class = 양성</text>
</g>
<!-- 17&#45;&gt;18 -->
<g id="edge18" class="edge">
<title>17&#45;&gt;18</title>
<path fill="none" stroke="black" d="M832.1,-88.95C831.75,-80.72 831.38,-71.85 831.02,-63.48"/>
<polygon fill="black" stroke="black" points="834.51,-63.08 830.59,-53.24 827.52,-63.38 834.51,-63.08"/>
</g>
<!-- 19 -->
<g id="node20" class="node">
<title>19</title>
<polygon fill="#e58139" stroke="black" points="990,-53 895,-53 895,0 990,0 990,-53"/>
<text text-anchor="middle" x="942.5" y="-37.8" font-family="Helvetica,sans-Serif" font-size="14.00">samples = 2</text>
<text text-anchor="middle" x="942.5" y="-22.8" font-family="Helvetica,sans-Serif" font-size="14.00">value = [2, 0]</text>
<text text-anchor="middle" x="942.5" y="-7.8" font-family="Helvetica,sans-Serif" font-size="14.00">class = 악성</text>
</g>
<!-- 17&#45;&gt;19 -->
<g id="edge19" class="edge">
<title>17&#45;&gt;19</title>
<path fill="none" stroke="black" d="M871.62,-88.95C882.49,-79.53 894.32,-69.27 905.14,-59.89"/>
<polygon fill="black" stroke="black" points="907.55,-62.43 912.81,-53.24 902.97,-57.14 907.55,-62.43"/>
</g>
</g>
</svg>
