<?xml version="1.0" encoding="UTF-8" standalone="no"?>
<!DOCTYPE svg PUBLIC "-//W3C//DTD SVG 1.1//EN"
 "http://www.w3.org/Graphics/SVG/1.1/DTD/svg11.dtd">
<!-- Generated by graphviz version 2.50.0 (0)
 -->
<!-- Title: Tree Pages: 1 -->
<svg width="294pt" height="224pt"
 viewBox="0.00 0.00 294.00 224.00" xmlns="http://www.w3.org/2000/svg" xmlns:xlink="http://www.w3.org/1999/xlink">
<g id="graph0" class="graph" transform="scale(1 1) rotate(0) translate(4 220)">
<title>Tree</title>
<polygon fill="white" stroke="transparent" points="-4,4 -4,-220 290,-220 290,4 -4,4"/>
<!-- 0 -->
<g id="node1" class="node">
<title>0</title>
<polygon fill="#ffffff" stroke="black" points="168,-216 58,-216 58,-163 168,-163 168,-216"/>
<text text-anchor="middle" x="113" y="-200.8" font-family="Helvetica,sans-Serif" font-size="14.00">X[1] &lt;= &#45;5.814</text>
<text text-anchor="middle" x="113" y="-185.8" font-family="Helvetica,sans-Serif" font-size="14.00">samples = 100</text>
<text text-anchor="middle" x="113" y="-170.8" font-family="Helvetica,sans-Serif" font-size="14.00">value = [50, 50]</text>
</g>
<!-- 1 -->
<g id="node2" class="node">
<title>1</title>
<polygon fill="#e58139" stroke="black" points="102,-119.5 0,-119.5 0,-81.5 102,-81.5 102,-119.5"/>
<text text-anchor="middle" x="51" y="-104.3" font-family="Helvetica,sans-Serif" font-size="14.00">samples = 25</text>
<text text-anchor="middle" x="51" y="-89.3" font-family="Helvetica,sans-Serif" font-size="14.00">value = [25, 0]</text>
</g>
<!-- 0&#45;&gt;1 -->
<g id="edge1" class="edge">
<title>0&#45;&gt;1</title>
<path fill="none" stroke="black" d="M94.73,-162.87C86.9,-151.87 77.75,-139.03 69.85,-127.95"/>
<polygon fill="black" stroke="black" points="72.49,-125.62 63.83,-119.51 66.79,-129.68 72.49,-125.62"/>
<text text-anchor="middle" x="59.7" y="-140.46" font-family="Helvetica,sans-Serif" font-size="14.00">True</text>
</g>
<!-- 2 -->
<g id="node3" class="node">
<title>2</title>
<polygon fill="#9ccef2" stroke="black" points="230,-127 120,-127 120,-74 230,-74 230,-127"/>
<text text-anchor="middle" x="175" y="-111.8" font-family="Helvetica,sans-Serif" font-size="14.00">X[1] &lt;= 5.348</text>
<text text-anchor="middle" x="175" y="-96.8" font-family="Helvetica,sans-Serif" font-size="14.00">samples = 75</text>
<text text-anchor="middle" x="175" y="-81.8" font-family="Helvetica,sans-Serif" font-size="14.00">value = [25, 50]</text>
</g>
<!-- 0&#45;&gt;2 -->
<g id="edge2" class="edge">
<title>0&#45;&gt;2</title>
<path fill="none" stroke="black" d="M131.27,-162.87C137.39,-154.27 144.32,-144.55 150.83,-135.42"/>
<polygon fill="black" stroke="black" points="153.7,-137.42 156.65,-127.25 148,-133.36 153.7,-137.42"/>
<text text-anchor="middle" x="160.79" y="-148.21" font-family="Helvetica,sans-Serif" font-size="14.00">False</text>
</g>
<!-- 3 -->
<g id="node4" class="node">
<title>3</title>
<polygon fill="#399de5" stroke="black" points="166,-38 64,-38 64,0 166,0 166,-38"/>
<text text-anchor="middle" x="115" y="-22.8" font-family="Helvetica,sans-Serif" font-size="14.00">samples = 50</text>
<text text-anchor="middle" x="115" y="-7.8" font-family="Helvetica,sans-Serif" font-size="14.00">value = [0, 50]</text>
</g>
<!-- 2&#45;&gt;3 -->
<g id="edge3" class="edge">
<title>2&#45;&gt;3</title>
<path fill="none" stroke="black" d="M155.69,-73.91C149.04,-65.1 141.59,-55.23 134.9,-46.36"/>
<polygon fill="black" stroke="black" points="137.58,-44.11 128.77,-38.24 132,-48.33 137.58,-44.11"/>
</g>
<!-- 4 -->
<g id="node5" class="node">
<title>4</title>
<polygon fill="#e58139" stroke="black" points="286,-38 184,-38 184,0 286,0 286,-38"/>
<text text-anchor="middle" x="235" y="-22.8" font-family="Helvetica,sans-Serif" font-size="14.00">samples = 25</text>
<text text-anchor="middle" x="235" y="-7.8" font-family="Helvetica,sans-Serif" font-size="14.00">value = [25, 0]</text>
</g>
<!-- 2&#45;&gt;4 -->
<g id="edge4" class="edge">
<title>2&#45;&gt;4</title>
<path fill="none" stroke="black" d="M194.31,-73.91C200.96,-65.1 208.41,-55.23 215.1,-46.36"/>
<polygon fill="black" stroke="black" points="218,-48.33 221.23,-38.24 212.42,-44.11 218,-48.33"/>
</g>
</g>
</svg>
