<?xml version="1.0" encoding="UTF-8" standalone="no"?>
<!DOCTYPE svg PUBLIC "-//W3C//DTD SVG 1.1//EN"
 "http://www.w3.org/Graphics/SVG/1.1/DTD/svg11.dtd">
<!-- Generated by graphviz version 2.50.0 (0)
 -->
<!-- Pages: 1 -->
<svg width="328pt" height="261pt"
 viewBox="0.00 0.00 328.00 261.00" xmlns="http://www.w3.org/2000/svg" xmlns:xlink="http://www.w3.org/1999/xlink">
<g id="graph0" class="graph" transform="scale(1 1) rotate(0) translate(4 257)">
<polygon fill="white" stroke="transparent" points="-4,4 -4,-257 324,-257 324,4 -4,4"/>
<g id="clust1" class="cluster">
<title>cluster_0</title>
<polygon fill="none" stroke="white" points="8,-8 8,-245 60,-245 60,-8 8,-8"/>
<text text-anchor="middle" x="34" y="-229.8" font-family="Times,serif" font-size="14.00">입력</text>
</g>
<g id="clust2" class="cluster">
<title>cluster_1</title>
<polygon fill="none" stroke="white" points="80,-35 80,-218 150,-218 150,-35 80,-35"/>
<text text-anchor="middle" x="115" y="-202.8" font-family="Times,serif" font-size="14.00">은닉층 1</text>
</g>
<g id="clust3" class="cluster">
<title>cluster_2</title>
<polygon fill="none" stroke="white" points="170,-35 170,-218 240,-218 240,-35 170,-35"/>
<text text-anchor="middle" x="205" y="-202.8" font-family="Times,serif" font-size="14.00">은닉층 2</text>
</g>
<g id="clust4" class="cluster">
<title>cluster_3</title>
<polygon fill="none" stroke="white" points="260,-89 260,-164 312,-164 312,-89 260,-89"/>
<text text-anchor="middle" x="286" y="-148.8" font-family="Times,serif" font-size="14.00">출력</text>
</g>
<!-- x[0] -->
<g id="node1" class="node">
<title>x[0]</title>
<ellipse fill="none" stroke="black" cx="34" cy="-196" rx="18" ry="18"/>
<text text-anchor="middle" x="34" y="-193.5" font-family="Times,serif" font-size="10.00">x[0]</text>
</g>
<!-- h1[0] -->
<g id="node5" class="node">
<title>h1[0]</title>
<ellipse fill="none" stroke="black" cx="115" cy="-61" rx="18" ry="18"/>
<text text-anchor="middle" x="115" y="-58.5" font-family="Times,serif" font-size="10.00">h1[0]</text>
</g>
<!-- x[0]&#45;&gt;h1[0] -->
<g id="edge1" class="edge">
<title>x[0]&#45;&gt;h1[0]</title>
<path fill="none" stroke="black" d="M43.91,-180.78C57.54,-157.48 83.7,-112.78 99.92,-85.07"/>
<polygon fill="black" stroke="black" points="102.97,-86.77 105,-76.38 96.93,-83.24 102.97,-86.77"/>
</g>
<!-- h1[1] -->
<g id="node6" class="node">
<title>h1[1]</title>
<ellipse fill="none" stroke="black" cx="115" cy="-169" rx="18" ry="18"/>
<text text-anchor="middle" x="115" y="-166.5" font-family="Times,serif" font-size="10.00">h1[1]</text>
</g>
<!-- x[0]&#45;&gt;h1[1] -->
<g id="edge2" class="edge">
<title>x[0]&#45;&gt;h1[1]</title>
<path fill="none" stroke="black" d="M51.37,-190.41C61.96,-186.79 75.98,-181.99 88.07,-177.86"/>
<polygon fill="black" stroke="black" points="89.32,-181.13 97.65,-174.59 87.06,-174.51 89.32,-181.13"/>
</g>
<!-- h1[2] -->
<g id="node7" class="node">
<title>h1[2]</title>
<ellipse fill="none" stroke="black" cx="115" cy="-115" rx="18" ry="18"/>
<text text-anchor="middle" x="115" y="-112.5" font-family="Times,serif" font-size="10.00">h1[2]</text>
</g>
<!-- x[0]&#45;&gt;h1[2] -->
<g id="edge3" class="edge">
<title>x[0]&#45;&gt;h1[2]</title>
<path fill="none" stroke="black" d="M47.34,-183.34C59.98,-170.39 79.81,-150.06 94.56,-134.93"/>
<polygon fill="black" stroke="black" points="97.27,-137.17 101.74,-127.57 92.26,-132.28 97.27,-137.17"/>
</g>
<!-- x[1] -->
<g id="node2" class="node">
<title>x[1]</title>
<ellipse fill="none" stroke="black" cx="34" cy="-142" rx="18" ry="18"/>
<text text-anchor="middle" x="34" y="-139.5" font-family="Times,serif" font-size="10.00">x[1]</text>
</g>
<!-- x[1]&#45;&gt;h1[0] -->
<g id="edge4" class="edge">
<title>x[1]&#45;&gt;h1[0]</title>
<path fill="none" stroke="black" d="M47.34,-129.34C59.98,-116.39 79.81,-96.06 94.56,-80.93"/>
<polygon fill="black" stroke="black" points="97.27,-83.17 101.74,-73.57 92.26,-78.28 97.27,-83.17"/>
</g>
<!-- x[1]&#45;&gt;h1[1] -->
<g id="edge5" class="edge">
<title>x[1]&#45;&gt;h1[1]</title>
<path fill="none" stroke="black" d="M51.37,-147.59C61.96,-151.21 75.98,-156.01 88.07,-160.14"/>
<polygon fill="black" stroke="black" points="87.06,-163.49 97.65,-163.41 89.32,-156.87 87.06,-163.49"/>
</g>
<!-- x[1]&#45;&gt;h1[2] -->
<g id="edge6" class="edge">
<title>x[1]&#45;&gt;h1[2]</title>
<path fill="none" stroke="black" d="M51.37,-136.41C61.96,-132.79 75.98,-127.99 88.07,-123.86"/>
<polygon fill="black" stroke="black" points="89.32,-127.13 97.65,-120.59 87.06,-120.51 89.32,-127.13"/>
</g>
<!-- x[2] -->
<g id="node3" class="node">
<title>x[2]</title>
<ellipse fill="none" stroke="black" cx="34" cy="-88" rx="18" ry="18"/>
<text text-anchor="middle" x="34" y="-85.5" font-family="Times,serif" font-size="10.00">x[2]</text>
</g>
<!-- x[2]&#45;&gt;h1[0] -->
<g id="edge7" class="edge">
<title>x[2]&#45;&gt;h1[0]</title>
<path fill="none" stroke="black" d="M51.37,-82.41C61.96,-78.79 75.98,-73.99 88.07,-69.86"/>
<polygon fill="black" stroke="black" points="89.32,-73.13 97.65,-66.59 87.06,-66.51 89.32,-73.13"/>
</g>
<!-- x[2]&#45;&gt;h1[1] -->
<g id="edge8" class="edge">
<title>x[2]&#45;&gt;h1[1]</title>
<path fill="none" stroke="black" d="M47.34,-100.66C59.98,-113.61 79.81,-133.94 94.56,-149.07"/>
<polygon fill="black" stroke="black" points="92.26,-151.72 101.74,-156.43 97.27,-146.83 92.26,-151.72"/>
</g>
<!-- x[2]&#45;&gt;h1[2] -->
<g id="edge9" class="edge">
<title>x[2]&#45;&gt;h1[2]</title>
<path fill="none" stroke="black" d="M51.37,-93.59C61.96,-97.21 75.98,-102.01 88.07,-106.14"/>
<polygon fill="black" stroke="black" points="87.06,-109.49 97.65,-109.41 89.32,-102.87 87.06,-109.49"/>
</g>
<!-- x[3] -->
<g id="node4" class="node">
<title>x[3]</title>
<ellipse fill="none" stroke="black" cx="34" cy="-34" rx="18" ry="18"/>
<text text-anchor="middle" x="34" y="-31.5" font-family="Times,serif" font-size="10.00">x[3]</text>
</g>
<!-- x[3]&#45;&gt;h1[0] -->
<g id="edge10" class="edge">
<title>x[3]&#45;&gt;h1[0]</title>
<path fill="none" stroke="black" d="M51.37,-39.59C61.96,-43.21 75.98,-48.01 88.07,-52.14"/>
<polygon fill="black" stroke="black" points="87.06,-55.49 97.65,-55.41 89.32,-48.87 87.06,-55.49"/>
</g>
<!-- x[3]&#45;&gt;h1[1] -->
<g id="edge11" class="edge">
<title>x[3]&#45;&gt;h1[1]</title>
<path fill="none" stroke="black" d="M43.91,-49.22C57.54,-72.52 83.7,-117.22 99.92,-144.93"/>
<polygon fill="black" stroke="black" points="96.93,-146.76 105,-153.62 102.97,-143.23 96.93,-146.76"/>
</g>
<!-- x[3]&#45;&gt;h1[2] -->
<g id="edge12" class="edge">
<title>x[3]&#45;&gt;h1[2]</title>
<path fill="none" stroke="black" d="M47.34,-46.66C59.98,-59.61 79.81,-79.94 94.56,-95.07"/>
<polygon fill="black" stroke="black" points="92.26,-97.72 101.74,-102.43 97.27,-92.83 92.26,-97.72"/>
</g>
<!-- h2[0] -->
<g id="node8" class="node">
<title>h2[0]</title>
<ellipse fill="none" stroke="black" cx="205" cy="-61" rx="18" ry="18"/>
<text text-anchor="middle" x="205" y="-58.5" font-family="Times,serif" font-size="10.00">h2[0]</text>
</g>
<!-- h1[0]&#45;&gt;h2[0] -->
<g id="edge13" class="edge">
<title>h1[0]&#45;&gt;h2[0]</title>
<path fill="none" stroke="black" d="M133.39,-61C145.76,-61 162.63,-61 176.78,-61"/>
<polygon fill="black" stroke="black" points="176.95,-64.5 186.95,-61 176.95,-57.5 176.95,-64.5"/>
</g>
<!-- h2[1] -->
<g id="node9" class="node">
<title>h2[1]</title>
<ellipse fill="none" stroke="black" cx="205" cy="-169" rx="18" ry="18"/>
<text text-anchor="middle" x="205" y="-166.5" font-family="Times,serif" font-size="10.00">h2[1]</text>
</g>
<!-- h1[0]&#45;&gt;h2[1] -->
<g id="edge14" class="edge">
<title>h1[0]&#45;&gt;h2[1]</title>
<path fill="none" stroke="black" d="M127.15,-74.68C142.09,-93.02 168.78,-125.77 186.44,-147.45"/>
<polygon fill="black" stroke="black" points="183.92,-149.89 192.95,-155.43 189.34,-145.47 183.92,-149.89"/>
</g>
<!-- h2[2] -->
<g id="node10" class="node">
<title>h2[2]</title>
<ellipse fill="none" stroke="black" cx="205" cy="-115" rx="18" ry="18"/>
<text text-anchor="middle" x="205" y="-112.5" font-family="Times,serif" font-size="10.00">h2[2]</text>
</g>
<!-- h1[0]&#45;&gt;h2[2] -->
<g id="edge15" class="edge">
<title>h1[0]&#45;&gt;h2[2]</title>
<path fill="none" stroke="black" d="M130.93,-70.16C144.54,-78.51 164.86,-90.98 180.62,-100.66"/>
<polygon fill="black" stroke="black" points="178.94,-103.73 189.29,-105.97 182.6,-97.76 178.94,-103.73"/>
</g>
<!-- h1[1]&#45;&gt;h2[0] -->
<g id="edge16" class="edge">
<title>h1[1]&#45;&gt;h2[0]</title>
<path fill="none" stroke="black" d="M127.15,-155.32C142.09,-136.98 168.78,-104.23 186.44,-82.55"/>
<polygon fill="black" stroke="black" points="189.34,-84.53 192.95,-74.57 183.92,-80.11 189.34,-84.53"/>
</g>
<!-- h1[1]&#45;&gt;h2[1] -->
<g id="edge17" class="edge">
<title>h1[1]&#45;&gt;h2[1]</title>
<path fill="none" stroke="black" d="M133.39,-169C145.76,-169 162.63,-169 176.78,-169"/>
<polygon fill="black" stroke="black" points="176.95,-172.5 186.95,-169 176.95,-165.5 176.95,-172.5"/>
</g>
<!-- h1[1]&#45;&gt;h2[2] -->
<g id="edge18" class="edge">
<title>h1[1]&#45;&gt;h2[2]</title>
<path fill="none" stroke="black" d="M130.93,-159.84C144.54,-151.49 164.86,-139.02 180.62,-129.34"/>
<polygon fill="black" stroke="black" points="182.6,-132.24 189.29,-124.03 178.94,-126.27 182.6,-132.24"/>
</g>
<!-- h1[2]&#45;&gt;h2[0] -->
<g id="edge19" class="edge">
<title>h1[2]&#45;&gt;h2[0]</title>
<path fill="none" stroke="black" d="M130.93,-105.84C144.54,-97.49 164.86,-85.02 180.62,-75.34"/>
<polygon fill="black" stroke="black" points="182.6,-78.24 189.29,-70.03 178.94,-72.27 182.6,-78.24"/>
</g>
<!-- h1[2]&#45;&gt;h2[1] -->
<g id="edge20" class="edge">
<title>h1[2]&#45;&gt;h2[1]</title>
<path fill="none" stroke="black" d="M130.93,-124.16C144.54,-132.51 164.86,-144.98 180.62,-154.66"/>
<polygon fill="black" stroke="black" points="178.94,-157.73 189.29,-159.97 182.6,-151.76 178.94,-157.73"/>
</g>
<!-- h1[2]&#45;&gt;h2[2] -->
<g id="edge21" class="edge">
<title>h1[2]&#45;&gt;h2[2]</title>
<path fill="none" stroke="black" d="M133.39,-115C145.76,-115 162.63,-115 176.78,-115"/>
<polygon fill="black" stroke="black" points="176.95,-118.5 186.95,-115 176.95,-111.5 176.95,-118.5"/>
</g>
<!-- y -->
<g id="node11" class="node">
<title>y</title>
<ellipse fill="none" stroke="black" cx="286" cy="-115" rx="18" ry="18"/>
<text text-anchor="middle" x="286" y="-112.5" font-family="Times,serif" font-size="10.00">y</text>
</g>
<!-- h2[0]&#45;&gt;y -->
<g id="edge22" class="edge">
<title>h2[0]&#45;&gt;y</title>
<path fill="none" stroke="black" d="M220.49,-70.9C232.18,-78.9 248.84,-90.28 262.3,-99.49"/>
<polygon fill="black" stroke="black" points="260.37,-102.4 270.6,-105.16 264.32,-96.63 260.37,-102.4"/>
</g>
<!-- h2[1]&#45;&gt;y -->
<g id="edge23" class="edge">
<title>h2[1]&#45;&gt;y</title>
<path fill="none" stroke="black" d="M220.49,-159.1C232.18,-151.1 248.84,-139.72 262.3,-130.51"/>
<polygon fill="black" stroke="black" points="264.32,-133.37 270.6,-124.84 260.37,-127.6 264.32,-133.37"/>
</g>
<!-- h2[2]&#45;&gt;y -->
<g id="edge24" class="edge">
<title>h2[2]&#45;&gt;y</title>
<path fill="none" stroke="black" d="M223.14,-115C233.29,-115 246.37,-115 257.88,-115"/>
<polygon fill="black" stroke="black" points="257.89,-118.5 267.89,-115 257.89,-111.5 257.89,-118.5"/>
</g>
</g>
</svg>
