<?xml version="1.0" encoding="UTF-8" standalone="no"?>
<!DOCTYPE svg PUBLIC "-//W3C//DTD SVG 1.1//EN"
 "http://www.w3.org/Graphics/SVG/1.1/DTD/svg11.dtd">
<!-- Generated by graphviz version 2.50.0 (0)
 -->
<!-- Pages: 1 -->
<svg width="227pt" height="261pt"
 viewBox="0.00 0.00 227.00 261.00" xmlns="http://www.w3.org/2000/svg" xmlns:xlink="http://www.w3.org/1999/xlink">
<g id="graph0" class="graph" transform="scale(1 1) rotate(0) translate(4 257)">
<polygon fill="white" stroke="transparent" points="-4,4 -4,-257 223,-257 223,4 -4,4"/>
<g id="clust1" class="cluster">
<title>cluster_0</title>
<polygon fill="none" stroke="white" points="8,-8 8,-245 60,-245 60,-8 8,-8"/>
<text text-anchor="middle" x="34" y="-229.8" font-family="Times,serif" font-size="14.00">입력</text>
</g>
<g id="clust2" class="cluster">
<title>cluster_1</title>
<polygon fill="none" stroke="white" points="80,-35 80,-218 139,-218 139,-35 80,-35"/>
<text text-anchor="middle" x="109.5" y="-202.8" font-family="Times,serif" font-size="14.00">은닉층</text>
</g>
<g id="clust3" class="cluster">
<title>cluster_2</title>
<polygon fill="none" stroke="white" points="159,-89 159,-164 211,-164 211,-89 159,-89"/>
<text text-anchor="middle" x="185" y="-148.8" font-family="Times,serif" font-size="14.00">출력</text>
</g>
<!-- x[0] -->
<g id="node1" class="node">
<title>x[0]</title>
<ellipse fill="none" stroke="black" cx="34" cy="-196" rx="18" ry="18"/>
<text text-anchor="middle" x="34" y="-192.3" font-family="Times,serif" font-size="14.00">x[0]</text>
</g>
<!-- h0 -->
<g id="node5" class="node">
<title>h0</title>
<ellipse fill="none" stroke="black" cx="109" cy="-61" rx="18" ry="18"/>
<text text-anchor="middle" x="109" y="-57.3" font-family="Times,serif" font-size="14.00">h[0]</text>
</g>
<!-- x[0]&#45;&gt;h0 -->
<g id="edge1" class="edge">
<title>x[0]&#45;&gt;h0</title>
<path fill="none" stroke="black" d="M43.37,-180.51C55.9,-157.34 79.65,-113.42 94.61,-85.77"/>
<polygon fill="black" stroke="black" points="97.82,-87.18 99.5,-76.72 91.66,-83.85 97.82,-87.18"/>
</g>
<!-- h1 -->
<g id="node6" class="node">
<title>h1</title>
<ellipse fill="none" stroke="black" cx="109" cy="-169" rx="18" ry="18"/>
<text text-anchor="middle" x="109" y="-165.3" font-family="Times,serif" font-size="14.00">h[1]</text>
</g>
<!-- x[0]&#45;&gt;h1 -->
<g id="edge2" class="edge">
<title>x[0]&#45;&gt;h1</title>
<path fill="none" stroke="black" d="M51.2,-190.01C60.37,-186.62 72.04,-182.3 82.42,-178.46"/>
<polygon fill="black" stroke="black" points="83.68,-181.73 91.84,-174.98 81.25,-175.16 83.68,-181.73"/>
</g>
<!-- h2 -->
<g id="node7" class="node">
<title>h2</title>
<ellipse fill="none" stroke="black" cx="109" cy="-115" rx="18" ry="18"/>
<text text-anchor="middle" x="109" y="-111.3" font-family="Times,serif" font-size="14.00">h[2]</text>
</g>
<!-- x[0]&#45;&gt;h2 -->
<g id="edge3" class="edge">
<title>x[0]&#45;&gt;h2</title>
<path fill="none" stroke="black" d="M46.73,-182.99C58.22,-170.23 75.92,-150.59 89.35,-135.7"/>
<polygon fill="black" stroke="black" points="92.21,-137.75 96.3,-127.98 87.01,-133.07 92.21,-137.75"/>
</g>
<!-- x[1] -->
<g id="node2" class="node">
<title>x[1]</title>
<ellipse fill="none" stroke="black" cx="34" cy="-142" rx="18" ry="18"/>
<text text-anchor="middle" x="34" y="-138.3" font-family="Times,serif" font-size="14.00">x[1]</text>
</g>
<!-- x[1]&#45;&gt;h0 -->
<g id="edge4" class="edge">
<title>x[1]&#45;&gt;h0</title>
<path fill="none" stroke="black" d="M46.73,-128.99C58.22,-116.23 75.92,-96.59 89.35,-81.7"/>
<polygon fill="black" stroke="black" points="92.21,-83.75 96.3,-73.98 87.01,-79.07 92.21,-83.75"/>
</g>
<!-- x[1]&#45;&gt;h1 -->
<g id="edge5" class="edge">
<title>x[1]&#45;&gt;h1</title>
<path fill="none" stroke="black" d="M51.2,-147.99C60.37,-151.38 72.04,-155.7 82.42,-159.54"/>
<polygon fill="black" stroke="black" points="81.25,-162.84 91.84,-163.02 83.68,-156.27 81.25,-162.84"/>
</g>
<!-- x[1]&#45;&gt;h2 -->
<g id="edge6" class="edge">
<title>x[1]&#45;&gt;h2</title>
<path fill="none" stroke="black" d="M51.2,-136.01C60.37,-132.62 72.04,-128.3 82.42,-124.46"/>
<polygon fill="black" stroke="black" points="83.68,-127.73 91.84,-120.98 81.25,-121.16 83.68,-127.73"/>
</g>
<!-- x[2] -->
<g id="node3" class="node">
<title>x[2]</title>
<ellipse fill="none" stroke="black" cx="34" cy="-88" rx="18" ry="18"/>
<text text-anchor="middle" x="34" y="-84.3" font-family="Times,serif" font-size="14.00">x[2]</text>
</g>
<!-- x[2]&#45;&gt;h0 -->
<g id="edge7" class="edge">
<title>x[2]&#45;&gt;h0</title>
<path fill="none" stroke="black" d="M51.2,-82.01C60.37,-78.62 72.04,-74.3 82.42,-70.46"/>
<polygon fill="black" stroke="black" points="83.68,-73.73 91.84,-66.98 81.25,-67.16 83.68,-73.73"/>
</g>
<!-- x[2]&#45;&gt;h1 -->
<g id="edge8" class="edge">
<title>x[2]&#45;&gt;h1</title>
<path fill="none" stroke="black" d="M46.73,-101.01C58.22,-113.77 75.92,-133.41 89.35,-148.3"/>
<polygon fill="black" stroke="black" points="87.01,-150.93 96.3,-156.02 92.21,-146.25 87.01,-150.93"/>
</g>
<!-- x[2]&#45;&gt;h2 -->
<g id="edge9" class="edge">
<title>x[2]&#45;&gt;h2</title>
<path fill="none" stroke="black" d="M51.2,-93.99C60.37,-97.38 72.04,-101.7 82.42,-105.54"/>
<polygon fill="black" stroke="black" points="81.25,-108.84 91.84,-109.02 83.68,-102.27 81.25,-108.84"/>
</g>
<!-- x[3] -->
<g id="node4" class="node">
<title>x[3]</title>
<ellipse fill="none" stroke="black" cx="34" cy="-34" rx="18" ry="18"/>
<text text-anchor="middle" x="34" y="-30.3" font-family="Times,serif" font-size="14.00">x[3]</text>
</g>
<!-- x[3]&#45;&gt;h0 -->
<g id="edge10" class="edge">
<title>x[3]&#45;&gt;h0</title>
<path fill="none" stroke="black" d="M51.2,-39.99C60.37,-43.38 72.04,-47.7 82.42,-51.54"/>
<polygon fill="black" stroke="black" points="81.25,-54.84 91.84,-55.02 83.68,-48.27 81.25,-54.84"/>
</g>
<!-- x[3]&#45;&gt;h1 -->
<g id="edge11" class="edge">
<title>x[3]&#45;&gt;h1</title>
<path fill="none" stroke="black" d="M43.37,-49.49C55.9,-72.66 79.65,-116.58 94.61,-144.23"/>
<polygon fill="black" stroke="black" points="91.66,-146.15 99.5,-153.28 97.82,-142.82 91.66,-146.15"/>
</g>
<!-- x[3]&#45;&gt;h2 -->
<g id="edge12" class="edge">
<title>x[3]&#45;&gt;h2</title>
<path fill="none" stroke="black" d="M46.73,-47.01C58.22,-59.77 75.92,-79.41 89.35,-94.3"/>
<polygon fill="black" stroke="black" points="87.01,-96.93 96.3,-102.02 92.21,-92.25 87.01,-96.93"/>
</g>
<!-- y -->
<g id="node8" class="node">
<title>y</title>
<ellipse fill="none" stroke="black" cx="185" cy="-115" rx="18" ry="18"/>
<text text-anchor="middle" x="185" y="-111.3" font-family="Times,serif" font-size="14.00">y</text>
</g>
<!-- h0&#45;&gt;y -->
<g id="edge13" class="edge">
<title>h0&#45;&gt;y</title>
<path fill="none" stroke="black" d="M123.92,-71.16C134.5,-78.88 149.27,-89.65 161.52,-98.59"/>
<polygon fill="black" stroke="black" points="159.75,-101.64 169.89,-104.7 163.88,-95.98 159.75,-101.64"/>
</g>
<!-- h1&#45;&gt;y -->
<g id="edge14" class="edge">
<title>h1&#45;&gt;y</title>
<path fill="none" stroke="black" d="M123.92,-158.84C134.5,-151.12 149.27,-140.35 161.52,-131.41"/>
<polygon fill="black" stroke="black" points="163.88,-134.02 169.89,-125.3 159.75,-128.36 163.88,-134.02"/>
</g>
<!-- h2&#45;&gt;y -->
<g id="edge15" class="edge">
<title>h2&#45;&gt;y</title>
<path fill="none" stroke="black" d="M127.16,-115C135.94,-115 146.84,-115 156.73,-115"/>
<polygon fill="black" stroke="black" points="156.93,-118.5 166.93,-115 156.93,-111.5 156.93,-118.5"/>
</g>
</g>
</svg>
